<svg width="45" height="45" viewBox="0 0 45 45" fill="none" xmlns="http://www.w3.org/2000/svg">
<path d="M0 22.8122H17.5209C18.75 22.8337 19.8956 23.3541 20.7291 24.2503L20.7497 24.2709C21.6459 25.1044 22.1663 26.2706 22.1878 27.4791V45H22.8122V27.4791C22.8337 26.25 23.3541 25.1044 24.2503 24.2709L24.2709 24.2503C25.1044 23.3541 26.2706 22.8337 27.4791 22.8122H45V22.1878H27.4791C26.25 22.1663 25.1044 21.6459 24.2709 20.7497L24.2503 20.7291C23.3541 19.8956 22.8337 18.7294 22.8122 17.5209V0H22.1878V17.5209C22.1663 18.75 21.6459 19.8956 20.7497 20.7291L20.7291 20.7497C19.8956 21.6459 18.7294 22.1663 17.5209 22.1878H0V22.8122ZM22.5 20.625C23.5416 20.625 24.375 21.4584 24.375 22.5C24.375 23.5416 23.5416 24.375 22.5 24.375C21.4584 24.375 20.625 23.5416 20.625 22.5C20.625 21.4584 21.4584 20.625 22.5 20.625Z" fill="#4A4956"/>
</svg>
