<svg width="103" height="46" viewBox="0 0 103 46" fill="none" xmlns="http://www.w3.org/2000/svg">
<path d="M51.5 45.5C79.6665 45.5 102.5 35.4264 102.5 23C102.5 10.5736 79.6665 0.5 51.5 0.5C23.3335 0.5 0.5 10.5736 0.5 23C0.5 35.4264 23.3335 45.5 51.5 45.5Z" stroke="#4A4956" stroke-miterlimit="10" stroke-linecap="round" stroke-linejoin="round"/>
<path d="M51.5001 0.5C69.4338 0.5 83.9948 10.5812 83.9948 23C83.9948 35.4174 69.4338 45.5 51.5001 45.5C33.5664 45.5 19.0068 35.4188 19.0068 23C19.0068 10.5826 33.5664 0.5 51.5001 0.5Z" stroke="#4A4956" stroke-miterlimit="10" stroke-linecap="round" stroke-linejoin="round"/>
<path d="M51.5002 45.5C60.5488 45.5 67.8842 35.4264 67.8842 23C67.8842 10.5736 60.5488 0.5 51.5002 0.5C42.4516 0.5 35.1162 10.5736 35.1162 23C35.1162 35.4264 42.4516 45.5 51.5002 45.5Z" stroke="#4A4956" stroke-miterlimit="10" stroke-linecap="round" stroke-linejoin="round"/>
<path d="M51.5 0.5V45.5" stroke="#4A4956" stroke-miterlimit="10" stroke-linecap="round" stroke-linejoin="round"/>
<path d="M102.5 23H0.5" stroke="#4A4956" stroke-miterlimit="10" stroke-linecap="round" stroke-linejoin="round"/>
</svg>
