<svg width="800" height="465" viewBox="0 0 800 465" fill="none" xmlns="http://www.w3.org/2000/svg">
<mask id="mask0_376_1007" style="mask-type:luminance" maskUnits="userSpaceOnUse" x="0" y="0" width="800" height="465">
<path d="M0 0L0 465H800L800 0H0Z" fill="white"/>
</mask>
<g mask="url(#mask0_376_1007)">
<path d="M-70.9546 20.348L-31.4333 0.000976562L-31.3355 1.953L-70.9546 22.351V20.348ZM-70.9546 44.752L5.01197 1.94897L4.90479 0.00500488L-70.9543 42.7479L-70.9546 44.752ZM-70.9546 71.8269L41.3604 1.94397L41.2423 0.00793457L-70.9546 69.817V71.8269ZM-70.9546 105.208L77.7104 1.94092L77.5789 0.0119629L-70.9546 103.188V105.208ZM-70.9546 147.384L114.061 1.93591L113.914 0.0150146L-70.9543 145.347L-70.9546 147.384ZM-70.9546 202.355L150.414 1.92493L150.247 0.0269775L-70.9546 200.306V202.355ZM-70.9546 276.998L186.771 1.91296L186.575 0.0379639L-70.9546 274.915V276.998ZM-70.9546 384.16L223.133 1.89001L222.9 0.0620117L-70.9543 382.03L-70.9546 384.16ZM-70.9546 551.016L259.502 1.85193L259.217 0.100952L-70.9546 548.792V551.016ZM295.882 1.77893L295.522 0.17395L-6.34366 695.445L-5.98335 697.049L295.882 1.77893ZM332.28 1.61597L331.81 0.334961L146.454 695.606L146.924 696.886L332.28 1.61597ZM368.682 1.27295L368.094 0.678955L299.247 695.95L299.835 696.544L368.682 1.27295ZM452.695 696.035L405.033 0.763916L404.43 1.18799L452.093 696.459L452.695 696.035ZM605.492 695.653L441.319 0.381958L440.827 1.56995L605 696.841L605.492 695.653ZM758.288 695.468L477.606 0.197021L477.228 1.755L757.91 697.026L758.288 695.468ZM881.953 644.359L513.908 0.109009L513.612 1.84399L881.953 646.613V644.359ZM881.953 449.046L550.224 0.065918L549.983 1.88696L881.953 451.193L881.953 449.046ZM881.953 325.946L586.546 0.0429688L586.346 1.90991L881.953 328.034V325.946ZM881.953 241.254L622.875 0.0269775L622.702 1.92493L881.953 243.313V241.254ZM881.953 179.425L659.208 0.0189209L659.056 1.93201L881.953 181.46V179.425ZM881.953 132.299L695.541 0.0119629L695.408 1.94092L881.953 134.322V132.299ZM881.953 95.189L731.878 0.00793457L731.758 1.94397L881.952 97.2019L881.953 95.189ZM881.953 65.209L768.216 0.00390625L768.107 1.948L881.953 67.215L881.953 65.209ZM881.953 40.484L804.553 0L804.454 1.9519L881.953 42.4869V40.484ZM881.953 19.746L840.892 0L840.801 1.9519L881.953 21.7419V19.746ZM-70.9546 0.0539551V2.02893H881.953V0.0539551H-70.9546ZM-70.9546 11.251V13.226H881.953V11.251H-70.9546ZM-70.9546 23.598V25.573H881.953V23.598H-70.9546ZM-70.9546 37.271V39.246H881.953V37.271H-70.9546ZM-70.9546 52.507V54.4819H881.953V52.507H-70.9546ZM-70.9546 69.578V71.553H881.953V69.578H-70.9546ZM-70.9546 88.844V90.819H881.953V88.844H-70.9546ZM-70.9546 110.76V112.735H881.953V110.76H-70.9546ZM-70.9546 135.908V137.883H881.953V135.908H-70.9546ZM-70.9546 165.063V167.038H881.953V165.063H-70.9546ZM-70.9546 199.264V201.239H881.953V199.264H-70.9546ZM-70.9546 239.945V241.92H881.953V239.945H-70.9546ZM-70.9546 289.141V291.116H881.953V289.141H-70.9546ZM-70.9546 349.836V351.811H881.953V349.836H-70.9546ZM-70.9546 426.6V428.575H881.953V426.6H-70.9546ZM-70.9546 526.779V528.754H881.953V526.779H-70.9546ZM-70.9546 663.022V664.997H881.953V663.022H-70.9546Z" fill="url(#paint0_linear_376_1007)" fill-opacity="0.2"/>
</g>
<defs>
<linearGradient id="paint0_linear_376_1007" x1="405" y1="464" x2="405" y2="-1.63057e-05" gradientUnits="userSpaceOnUse">
<stop stop-color="#FFE7E1" stop-opacity="0.8"/>
<stop offset="1" stop-color="#FFE7E1" stop-opacity="0"/>
</linearGradient>
</defs>
</svg>
